<svg aria-hidden="true" style="position: absolute; width: 0; height: 0; overflow: hidden;" version="1.1" xmlns="http://www.w3.org/2000/svg" xmlns:xlink="http://www.w3.org/1999/xlink">
<defs>
    <symbol id="icon-instagram" viewBox="0 0 32 32">
        <path d="M0 16c0-8.837 7.163-16 16-16s16 7.163 16 16c0 8.837-7.163 16-16 16s-16-7.163-16-16zM16.001 7.467c-2.318 0-2.608 0.010-3.519 0.052-0.908 0.042-1.529 0.185-2.071 0.396-0.561 0.218-1.037 0.51-1.512 0.984s-0.766 0.95-0.985 1.511c-0.212 0.543-0.356 1.163-0.396 2.071-0.041 0.91-0.051 1.201-0.051 3.519s0.010 2.608 0.052 3.518c0.042 0.908 0.186 1.529 0.396 2.071 0.218 0.561 0.51 1.037 0.984 1.512s0.95 0.767 1.511 0.985c0.543 0.211 1.163 0.355 2.071 0.396 0.91 0.041 1.201 0.052 3.518 0.052s2.608-0.010 3.518-0.052c0.908-0.042 1.529-0.185 2.072-0.396 0.561-0.218 1.036-0.51 1.511-0.985s0.766-0.95 0.985-1.511c0.21-0.543 0.354-1.163 0.396-2.071 0.041-0.91 0.052-1.2 0.052-3.518s-0.011-2.608-0.052-3.519c-0.043-0.908-0.187-1.529-0.396-2.071-0.219-0.561-0.51-1.037-0.985-1.512s-0.949-0.766-1.511-0.984c-0.544-0.211-1.164-0.355-2.073-0.396-0.91-0.041-1.2-0.052-3.518-0.052h0.003z"></path>
        <path d="M15.235 9.004c0.227-0 0.481 0 0.766 0 2.278 0 2.548 0.008 3.448 0.049 0.832 0.038 1.284 0.177 1.584 0.294 0.398 0.155 0.682 0.34 0.981 0.638s0.484 0.583 0.639 0.981c0.117 0.3 0.256 0.752 0.294 1.584 0.041 0.9 0.050 1.17 0.050 3.447s-0.009 2.548-0.050 3.447c-0.038 0.832-0.177 1.284-0.294 1.584-0.155 0.398-0.34 0.682-0.639 0.98s-0.582 0.484-0.981 0.638c-0.3 0.117-0.752 0.256-1.584 0.294-0.9 0.041-1.17 0.050-3.448 0.050s-2.549-0.009-3.448-0.050c-0.832-0.038-1.284-0.177-1.585-0.294-0.398-0.155-0.683-0.34-0.981-0.638s-0.484-0.582-0.639-0.981c-0.117-0.3-0.256-0.752-0.294-1.584-0.041-0.9-0.049-1.17-0.049-3.449s0.008-2.548 0.049-3.447c0.038-0.832 0.177-1.284 0.294-1.584 0.155-0.398 0.34-0.683 0.639-0.981s0.583-0.484 0.981-0.639c0.301-0.117 0.753-0.256 1.585-0.294 0.787-0.036 1.092-0.046 2.683-0.048v0.002zM20.556 10.421c-0.565 0-1.024 0.458-1.024 1.024s0.459 1.024 1.024 1.024 1.024-0.459 1.024-1.024c0-0.565-0.459-1.024-1.024-1.024zM16.001 11.618c-2.42 0-4.382 1.962-4.382 4.382s1.962 4.381 4.382 4.381 4.382-1.961 4.382-4.381c0-2.42-1.961-4.382-4.382-4.382z"></path>
        <path d="M16.001 13.156c1.571 0 2.844 1.273 2.844 2.844s-1.274 2.844-2.844 2.844c-1.571 0-2.844-1.274-2.844-2.844s1.273-2.844 2.844-2.844z"></path>
    </symbol>
    <symbol id="icon-facebook" viewBox="0 0 32 32">
        <path d="M16.175 31.7c-8.65 0.038-15.762-7.162-15.556-15.956 0.194-8.375 7.131-15.294 15.756-15.2 8.544 0.094 15.613 7.206 15.381 16.012-0.219 8.337-7.1 15.188-15.581 15.144zM2.513 16.144c0.069 7.831 6.419 13.863 13.919 13.731 7.262-0.131 13.419-6.050 13.419-13.75 0-7.831-6.4-13.887-13.925-13.744-7.262 0.131-13.363 6.069-13.412 13.762z"></path>
        <path d="M12.925 27.087c0-3.681 0-7.331 0-11.019-0.813 0-1.6 0-2.406 0 0-1.25 0-2.463 0-3.713 0.106-0.006 0.213-0.019 0.325-0.019 0.581 0 1.169-0.012 1.75 0.006 0.256 0.006 0.344-0.063 0.338-0.325-0.012-0.95-0.012-1.894-0.006-2.844 0.006-1.069 0.306-2.037 1.069-2.813 0.738-0.75 1.681-1.156 2.706-1.219 1.65-0.094 3.306-0.081 4.963-0.112 0.019 0 0.038 0.019 0.075 0.037 0 1.256 0 2.519 0 3.813-0.119 0.006-0.231 0.012-0.337 0.012-0.75 0-1.5 0-2.25 0-0.756 0.006-1.2 0.456-1.2 1.2 0 0.706 0 1.419 0.006 2.125 0 0.019 0.012 0.037 0.031 0.106 1.238 0 2.488 0 3.8 0-0.163 1.269-0.313 2.481-0.475 3.738-1.131 0-2.238 0-3.375 0 0 3.7 0 7.363 0 11.037-1.681-0.012-3.319-0.012-5.012-0.012z"></path>
    </symbol>
</defs>
</svg>
